<svg id="bath" xmlns="http://www.w3.org/2000/svg" width="57.12" height="37.497" viewBox="0 0 57.12 37.497">
  <path id="Path_3" data-name="Path 3" d="M78.125,22.807l-1.42,7.722a4.472,4.472,0,0,1-2.259,2.914,7.209,7.209,0,0,1-.863.436,3.416,3.416,0,0,1,.647,1.756,1.675,1.675,0,0,1-1.225,1.65,5.015,5.015,0,0,1-3.442-.255,8.2,8.2,0,0,1-3.3-2.429H37.721a8.117,8.117,0,0,1-3.3,2.429,5.051,5.051,0,0,1-3.376.28,1.692,1.692,0,0,1-1.292-1.675A3.391,3.391,0,0,1,30.4,33.88a7.217,7.217,0,0,1-.863-.436,4.461,4.461,0,0,1-2.259-2.914l-.3-1.613c-.052-.3.313-.571.818-.6s.957.185,1.01.486l.3,1.613a3.421,3.421,0,0,0,1.733,2.252A6.56,6.56,0,0,0,34.2,33.5H69.786a6.578,6.578,0,0,0,3.359-.839,3.442,3.442,0,0,0,1.733-2.252l1.389-7.542H66.959v5.736a1.789,1.789,0,0,1-1.016,1.457,4.848,4.848,0,0,1-2.444.6H54.53a4.847,4.847,0,0,1-2.443-.6,1.785,1.785,0,0,1-1.013-1.457v-1.65c0-.3.411-.548.919-.548s.922.245.922.548v1.65a.84.84,0,0,0,.473.681,2.267,2.267,0,0,0,1.142.282H63.5a2.266,2.266,0,0,0,1.142-.282.84.84,0,0,0,.473-.681V20.082h-12.2V24.47c0,.3-.414.548-.922.548s-.919-.245-.919-.548v-1.6H27.717l.637,3.456c.056.3-.31.571-.815.6s-.957-.185-1.013-.486l-.668-3.637a4.163,4.163,0,0,1-1.469-.506,1.686,1.686,0,0,1-.957-1.374,1.68,1.68,0,0,1,.957-1.372,4.571,4.571,0,0,1,2.3-.571H29.6a3.248,3.248,0,0,1,1.626-1.949,8.036,8.036,0,0,1,4.052-1,9.344,9.344,0,0,1,1.6.137,4.413,4.413,0,0,1,1.841-1.592,9.054,9.054,0,0,1,4.045-.891,8.953,8.953,0,0,1,4.2.972A4.179,4.179,0,0,1,48.727,16.3q.392-.1.8-.168a12.553,12.553,0,0,1,4.546.06c.3.06.6.133.888.216a3.035,3.035,0,0,1,.446-.772,5.208,5.208,0,0,1,1.754-1.368,1.382,1.382,0,0,1,1.292.062c.327.23.282.575-.1.77a3.767,3.767,0,0,0-1.274,1,2.035,2.035,0,0,0-.459,1.218.424.424,0,0,1-.185.328,1.367,1.367,0,0,1-1.285.1,7.717,7.717,0,0,0-1.657-.521,9.652,9.652,0,0,0-3.457-.044,8.039,8.039,0,0,0-1.476.394,1.392,1.392,0,0,1-.407.081c-.5.027-.95-.2-1-.5a2.518,2.518,0,0,0-1.424-1.7,6.3,6.3,0,0,0-2.966-.685,6.4,6.4,0,0,0-2.858.625,2.709,2.709,0,0,0-1.5,1.584.392.392,0,0,1-.094.166,1.274,1.274,0,0,1-1.236.232,6.05,6.05,0,0,0-1.807-.262,5.466,5.466,0,0,0-2.75.679,2.325,2.325,0,0,0-1.062,1.173H73.8v-.019a2.112,2.112,0,0,0-1.2-1.725,5.74,5.74,0,0,0-2.889-.714,6.915,6.915,0,0,0-1.09.085,5.966,5.966,0,0,0-.968.243,1.157,1.157,0,0,1-.258.071,1.1,1.1,0,0,1-1.135-.378,3.423,3.423,0,0,0-1.74-1.534,7.211,7.211,0,0,0-2.917-.6c-.508,0-.912-.253-.9-.554s.421-.544.926-.542a9.965,9.965,0,0,1,4.02.835,5.367,5.367,0,0,1,2.015,1.5c.157-.033.313-.064.477-.091.216-.035.432-.064.651-.085V3.6a2.173,2.173,0,0,0-1.232-1.767A5.882,5.882,0,0,0,64.6,1.1H57.109a5.877,5.877,0,0,0-2.962.737A2.526,2.526,0,0,0,53,3.093a9.6,9.6,0,0,1,4.065,1.212,3.7,3.7,0,0,1,2.1,3.027c0,.3-.411.548-.919.548H45.737c-.508,0-.919-.245-.919-.548a3.7,3.7,0,0,1,2.1-3.027,9.665,9.665,0,0,1,4.215-1.223,3.449,3.449,0,0,1,1.709-2.026A8.47,8.47,0,0,1,57.108,0H64.6a8.474,8.474,0,0,1,4.267,1.057A3.129,3.129,0,0,1,70.635,3.6v11.87a7.883,7.883,0,0,1,3.272.992,3.038,3.038,0,0,1,1.737,2.52H77.29a4.562,4.562,0,0,1,2.3.571,1.68,1.68,0,0,1,.957,1.372,1.686,1.686,0,0,1-.957,1.374,4.163,4.163,0,0,1-1.469.506ZM49.11,12.347c0,.3-.414.55-.922.55s-.919-.247-.919-.55V9.6c0-.305.411-.55.919-.55s.922.245.922.55Zm7.609,0c0,.3-.414.55-.922.55s-.919-.247-.919-.55V9.6c0-.305.411-.55.919-.55s.922.245.922.55Zm-3.8.982c0,.305-.414.55-.922.55s-.919-.245-.919-.55V9.6c0-.305.411-.55.919-.55s.922.245.922.55Zm14.045,8.445H77.29a1.991,1.991,0,0,0,1-.249.635.635,0,0,0,0-1.194,1.991,1.991,0,0,0-1-.249H66.959ZM51.073,20.082H26.693a1.991,1.991,0,0,0-1,.249.635.635,0,0,0,0,1.194,1.991,1.991,0,0,0,1,.249H51.073V20.082Zm4.692-15a8.1,8.1,0,0,0-7.543,0,3.1,3.1,0,0,0-1.483,1.7H57.248A3.119,3.119,0,0,0,55.765,5.082Zm16.179,29.3a10.444,10.444,0,0,1-1.928.214c-.554.01-1.121,0-1.678,0a6.881,6.881,0,0,0,2.255,1.52,2.392,2.392,0,0,0,1.427.241c.348-.116.379-.513.376-.718a2.54,2.54,0,0,0-.452-1.258Zm-36.3.216c-.553,0-1.121.008-1.674,0a10.634,10.634,0,0,1-1.932-.212,2.527,2.527,0,0,0-.453,1.256c-.014.866.647.942,1.8.477A6.8,6.8,0,0,0,35.646,34.6Z" transform="translate(-23.432 0)" fill="#ccb286"/>
</svg>
