<svg xmlns="http://www.w3.org/2000/svg" width="56.636" height="46.467" viewBox="0 0 56.636 46.467">
  <path id="bed" d="M63.723,114.85h-.913V106.4a3.976,3.976,0,0,0-3.654-4.224V84.224A3.976,3.976,0,0,0,55.5,80H17.135a3.976,3.976,0,0,0-3.654,4.224v17.953A3.976,3.976,0,0,0,9.827,106.4v8.448H8.913A.993.993,0,0,0,8,115.906v4.224a.993.993,0,0,0,.913,1.056h.913v4.224a.993.993,0,0,0,.913,1.056h2.74a.957.957,0,0,0,.9-.849l.767-4.432H57.493l.767,4.432a.957.957,0,0,0,.9.849H61.9a.993.993,0,0,0,.913-1.056v-4.224h.913a.993.993,0,0,0,.913-1.056v-4.224A.993.993,0,0,0,63.723,114.85ZM15.308,84.224a1.988,1.988,0,0,1,1.827-2.112H55.5a1.988,1.988,0,0,1,1.827,2.112v17.953H55.5V97.953a3.976,3.976,0,0,0-3.654-4.224H40.886a3.976,3.976,0,0,0-3.654,4.224v4.224H35.4V97.953a3.976,3.976,0,0,0-3.654-4.224H20.789a3.976,3.976,0,0,0-3.654,4.224v4.224H15.308ZM53.675,97.953v4.224H39.059V97.953a1.988,1.988,0,0,1,1.827-2.112H51.848A1.988,1.988,0,0,1,53.675,97.953Zm-20.1,0v4.224H18.962V97.953a1.988,1.988,0,0,1,1.827-2.112H31.751A1.988,1.988,0,0,1,33.578,97.953ZM11.654,106.4a1.988,1.988,0,0,1,1.827-2.112H59.156a1.988,1.988,0,0,1,1.827,2.112v8.448H11.654Zm1.078,17.953H11.654v-3.168H13.28Zm48.251,0H59.9l-.548-3.168h1.626Zm1.827-5.28H9.827v-2.112H62.809Z" transform="translate(-8 -80)" fill="#ccb286"/>
</svg>
