<svg xmlns="http://www.w3.org/2000/svg" width="76.102" height="73" viewBox="0 0 76.102 73">
  <g id="like" transform="translate(0 -10.433)">
    <g id="Group_6" data-name="Group 6" transform="translate(0 33.743)">
      <g id="Group_5" data-name="Group 5">
        <path id="Path_16" data-name="Path 16" d="M12.423,167.256H2.485A2.489,2.489,0,0,0,0,169.74v44.722a2.486,2.486,0,0,0,2.485,2.484h9.938a2.486,2.486,0,0,0,2.485-2.484V169.74A2.489,2.489,0,0,0,12.423,167.256Z" transform="translate(0 -167.256)"/>
      </g>
    </g>
    <g id="Group_8" data-name="Group 8" transform="translate(19.877 10.433)">
      <g id="Group_7" data-name="Group 7" transform="translate(0 0)">
        <path id="Path_17" data-name="Path 17" d="M183.748,33.743c-.4-.068-19.135,0-19.135,0L167.23,26.6c1.806-4.931.637-12.46-4.373-15.136a8.588,8.588,0,0,0-5.748-.847,4.145,4.145,0,0,0-2.532,1.9,10.318,10.318,0,0,0-.8,3.522,15.211,15.211,0,0,1-4.214,8.056c-3.857,3.762-15.84,14.616-15.84,14.616V78.465h41.409a7.524,7.524,0,0,0,6.493-11.11,7.522,7.522,0,0,0,2.485-9.938,7.522,7.522,0,0,0,2.485-9.938C192.266,43.848,190.371,34.863,183.748,33.743Z" transform="translate(-133.726 -10.433)"/>
      </g>
    </g>
  </g>
</svg>
