<svg xmlns="http://www.w3.org/2000/svg" width="60.006" height="60" viewBox="0 0 60.006 60">
  <g id="find" transform="translate(-1.994 -2)">
    <path id="Path_6" data-name="Path 6" d="M61,6H49.13l-3.4-3.68A.99.99,0,0,0,45,2H15a1,1,0,0,0-1,1V17.75a17,17,0,0,0,0,32.5V57a1,1,0,0,0,1,1h9v3a1,1,0,0,0,1,1H61a1,1,0,0,0,1-1V7A1,1,0,0,0,61,6ZM46,5.56,54.72,15H46ZM4,34A15,15,0,1,1,19,49,15,15,0,0,1,4,34ZM16,56V50.72A17.431,17.431,0,0,0,19,51a16.861,16.861,0,0,0,7.94-1.98L33.93,56Zm10,4V58h9.93l2.01,2Zm17.62-1.38a3.043,3.043,0,0,1-4.23,0L28.7,47.94a17.082,17.082,0,0,0,4.24-4.24L43.62,54.39a2.958,2.958,0,0,1,0,4.23Zm-9.6-16.68A16.982,16.982,0,0,0,19,17a17.432,17.432,0,0,0-3,.28V4H44V16a1,1,0,0,0,1,1H56V56H46.46a4.994,4.994,0,0,0-1.42-3.03ZM60,60H45.07a4.919,4.919,0,0,0,1.18-2H57a1,1,0,0,0,1-1V16a.977.977,0,0,0-.27-.68L50.98,8H60Z"/>
    <path id="Path_7" data-name="Path 7" d="M20,7h6V9H20Z"/>
    <path id="Path_8" data-name="Path 8" d="M29,7H41V9H29Z"/>
    <path id="Path_9" data-name="Path 9" d="M20,12H41v2H20Z"/>
    <path id="Path_10" data-name="Path 10" d="M36,20H54v2H36Z"/>
    <path id="Path_11" data-name="Path 11" d="M36,25H54v2H36Z"/>
    <path id="Path_12" data-name="Path 12" d="M38,30H54v2H38Z"/>
    <path id="Path_13" data-name="Path 13" d="M38,35h4v2H38Z"/>
    <path id="Path_14" data-name="Path 14" d="M44,35H54v2H44Z"/>
    <path id="Path_15" data-name="Path 15" d="M32,34A13,13,0,1,0,19,47,13,13,0,0,0,32,34ZM8,34A11,11,0,1,1,19,45,11,11,0,0,1,8,34Z"/>
  </g>
</svg>
