<svg xmlns="http://www.w3.org/2000/svg" width="82.7" height="73.644" viewBox="0 0 82.7 73.644">
  <path id="Path_18" data-name="Path 18" d="M0,96.292V37.844a4.121,4.121,0,0,1,4.127-4.127H55.945l-8.236,8.236H8.236V92.166H58.448V70.839L66.684,62.6V96.292a4.132,4.132,0,0,1-4.127,4.127H4.127A4.121,4.121,0,0,1,0,96.292ZM35.871,64.667l-8.794-8.794a6.334,6.334,0,0,0-10.807,4.482,6.227,6.227,0,0,0,1.86,4.465L31.389,78.078a6.329,6.329,0,0,0,8.947,0l40.5-40.5a6.326,6.326,0,0,0-8.947-8.947Z" transform="translate(0 -26.775)"/>
</svg>
