<svg xmlns="http://www.w3.org/2000/svg" width="71.537" height="101" viewBox="0 0 71.537 101">
  <g id="touchscreen" transform="translate(-3.001)">
    <g id="Group_10" data-name="Group 10" transform="translate(19.83 12.625)">
      <path id="Path_19" data-name="Path 19" d="M9.1,61.917a2.1,2.1,0,0,1-2.1-2.1v-48.4a8.417,8.417,0,0,1,16.833,0V55.6a2.1,2.1,0,1,1-4.208,0V11.417a4.208,4.208,0,1,0-8.417,0v48.4A2.1,2.1,0,0,1,9.1,61.917Z" transform="translate(-7 -3)"/>
    </g>
    <g id="Group_11" data-name="Group 11" transform="translate(32.455 37.875)">
      <path id="Path_20" data-name="Path 20" d="M24.729,38.458a2.1,2.1,0,0,1-2.1-2.1V17.417a4.208,4.208,0,1,0-8.417,0,2.1,2.1,0,0,1-4.208,0,8.417,8.417,0,0,1,16.833,0V36.354A2.1,2.1,0,0,1,24.729,38.458Z" transform="translate(-10 -9)"/>
    </g>
    <g id="Group_12" data-name="Group 12" transform="translate(45.08 42.083)">
      <path id="Path_21" data-name="Path 21" d="M27.729,35.25a2.1,2.1,0,0,1-2.1-2.1V18.417a4.208,4.208,0,1,0-8.417,0,2.1,2.1,0,0,1-4.208,0,8.417,8.417,0,1,1,16.833,0V33.146A2.1,2.1,0,0,1,27.729,35.25Z" transform="translate(-13 -10)"/>
    </g>
    <g id="Group_13" data-name="Group 13" transform="translate(3.001 46.292)">
      <path id="Path_22" data-name="Path 22" d="M55.6,65.708H31.247A28.29,28.29,0,0,1,11.7,57.456C6,51.753,2.988,43.619,3,33.94A14.751,14.751,0,0,1,17.92,19.417h4.015a2.1,2.1,0,1,1,0,4.208H17.92A10.541,10.541,0,0,0,7.209,33.944C7.2,42.6,9.713,49.51,14.671,54.481A24.334,24.334,0,0,0,31.247,61.5H55.6A14.745,14.745,0,0,0,70.33,46.771V19.417a4.208,4.208,0,0,0-8.417,0,2.1,2.1,0,1,1-4.208,0,8.417,8.417,0,1,1,16.833,0V46.771A18.961,18.961,0,0,1,55.6,65.708Z" transform="translate(-3.001 -11)"/>
    </g>
    <g id="Group_14" data-name="Group 14" transform="translate(7.205)">
      <path id="Path_23" data-name="Path 23" d="M39.771,35.013a2.1,2.1,0,0,1-1.624-3.434,16.487,16.487,0,0,0,3.729-10.538,16.833,16.833,0,1,0-33.667,0,16.468,16.468,0,0,0,3.733,10.538,2.1,2.1,0,0,1-3.253,2.664A20.612,20.612,0,0,1,4,21.042a21.042,21.042,0,1,1,42.083,0,20.631,20.631,0,0,1-4.684,13.2A2.093,2.093,0,0,1,39.771,35.013Z" transform="translate(-4)"/>
    </g>
  </g>
</svg>
