<svg id="placeholder" xmlns="http://www.w3.org/2000/svg" width="34.619" height="38.707" viewBox="0 0 34.619 38.707">
  <g id="Group_2" data-name="Group 2" transform="translate(0 0)">
    <g id="Group_1" data-name="Group 1">
      <path id="Path_1" data-name="Path 1" d="M93.31,0C83.765,0,76,6.1,76,13.608a11.522,11.522,0,0,0,2.584,7.156l13.74,17.407a1.564,1.564,0,0,0,1.226.536h.011a1.554,1.554,0,0,0,1.226-.551l13.39-17.576a11.486,11.486,0,0,0,2.442-6.972C110.619,6.1,102.854,0,93.31,0ZM105.7,19.415,93.528,35.395,81.036,19.569a9.619,9.619,0,0,1-2.17-5.961c0-6.253,6.49-11.355,14.444-11.355s14.434,5.1,14.434,11.355A9.579,9.579,0,0,1,105.7,19.415Z" transform="translate(-76 0)" fill="#707070"/>
    </g>
  </g>
  <g id="Group_4" data-name="Group 4" transform="translate(7.242 6.106)">
    <g id="Group_3" data-name="Group 3">
      <path id="Path_2" data-name="Path 2" d="M176.068,90C170.516,90,166,93.63,166,98.091c0,4.433,4.443,8.091,10.068,8.091,5.694,0,10.068-3.707,10.068-8.091C186.136,93.63,181.619,90,176.068,90Zm0,13.5c-3.72,0-6.734-2.43-6.734-5.412s3.033-5.412,6.734-5.412,6.723,2.438,6.723,5.412C182.791,101.029,179.847,103.5,176.068,103.5Z" transform="translate(-166 -90)" fill="#707070"/>
    </g>
  </g>
</svg>
