<svg xmlns="http://www.w3.org/2000/svg" width="334" height="152" viewBox="0 0 334 152">
  <g id="Logo" transform="translate(-181 -83)">
    <g id="Tower">
      <g id="Rectangle_15" data-name="Rectangle 15" transform="translate(261 114)" fill="none" stroke="#000" stroke-width="1">
        <rect width="17" height="37" stroke="none"/>
        <rect x="0.5" y="0.5" width="16" height="36" fill="none"/>
      </g>
      <g id="Rectangle_19" data-name="Rectangle 19" transform="translate(262 115)" fill="none" stroke="#777" stroke-width="1">
        <rect width="15" height="36" stroke="none"/>
        <rect x="0.5" y="0.5" width="14" height="35" fill="none"/>
      </g>
      <g id="Rectangle_16" data-name="Rectangle 16" transform="translate(255 128)" fill="none" stroke="#000" stroke-width="1">
        <rect width="30" height="23" stroke="none"/>
        <rect x="0.5" y="0.5" width="29" height="22" fill="none"/>
      </g>
      <g id="Rectangle_20" data-name="Rectangle 20" transform="translate(256 129)" fill="none" stroke="#777" stroke-width="1">
        <rect width="28" height="22" stroke="none"/>
        <rect x="0.5" y="0.5" width="27" height="21" fill="none"/>
      </g>
      <g id="Path_26" data-name="Path 26" transform="translate(248 140)" fill="none">
        <path d="M0,0H42V17.035h0s-11-6.9-21.5-6.9S0,17.035,0,17.035Z" stroke="none"/>
        <path d="M 1 1 L 1 15.22422695159912 C 2.130477905273438 14.55167198181152 3.819812774658203 13.61654090881348 5.899429321289062 12.67595958709717 C 9.467098236083984 11.06234931945801 14.89586067199707 9.138859748840332 20.49805068969727 9.138859748840332 C 26.09012985229492 9.138859748840332 31.78470993041992 11.0572395324707 35.5771598815918 12.66654968261719 C 37.89251327514648 13.64907169342041 39.77861022949219 14.62491893768311 41 15.29966735839844 L 41 1 L 1 1 M 0 0 L 42 0 L 42 17.03533935546875 C 42 17.03533935546875 30.99805068969727 10.13885974884033 20.49805068969727 10.13885974884033 C 9.998050689697266 10.13885974884033 0 17.03533935546875 0 17.03533935546875 L 0 0 Z" stroke="none" fill="#000"/>
      </g>
      <g id="Path_27" data-name="Path 27" transform="translate(249 141)" fill="none">
        <path d="M0,0H40V16S29.17,9.96,19.17,9.96,0,16,0,16Z" stroke="none"/>
        <path d="M 1 1 L 1 14.23891162872314 C 2.043636322021484 13.65316963195801 3.569423675537109 12.85857772827148 5.442829132080078 12.06000995635986 C 8.760669708251953 10.64573001861572 13.83543014526367 8.959839820861816 19.16991996765137 8.959839820861816 C 23.43940925598145 8.959839820861816 28.32516098022461 9.998050689697266 33.69145202636719 12.04561996459961 C 35.95407867431641 12.90895366668701 37.80405426025391 13.7661771774292 39 14.35675621032715 L 39 1 L 1 1 M 0 0 L 40 0 L 40 16 C 40 16 29.16991996765137 9.959839820861816 19.16991996765137 9.959839820861816 C 9.169919967651367 9.959839820861816 0 16 0 16 L 0 0 Z" stroke="none" fill="#777"/>
      </g>
      <g id="Path_25" data-name="Path 25" transform="translate(242 150)" fill="none">
        <path d="M0,0H55V15.081S45.873.631,26,1.288,0,14.1,0,14.1Z" stroke="none"/>
        <path d="M 1 0.9999990463256836 L 1 10.92358493804932 C 1.920440673828125 9.820333480834961 3.209457397460938 8.491331100463867 4.938560485839844 7.148638725280762 C 7.846588134765625 4.890477180480957 12.49006652832031 2.255801200866699 19.26734924316406 0.9999990463256836 L 1 0.9999990463256836 M 34.72780990600586 0.9999990463256836 C 41.00630950927734 2.275551795959473 45.73015594482422 4.994430541992188 48.87060928344727 7.377248764038086 C 51.14916610717773 9.106088638305664 52.84890747070312 10.82964420318604 54 12.15392112731934 L 54 0.9999990463256836 L 34.72780990600586 0.9999990463256836 M 0 -9.5367431640625e-07 L 55 -9.5367431640625e-07 L 55 15.08123874664307 C 55 15.08123874664307 46.27192687988281 1.266537666320801 27.31351470947266 1.266537666320801 C 26.88153839111328 1.266537666320801 26.44750022888184 1.273636817932129 26.00488090515137 1.28826904296875 C 6.13671875 1.945069313049316 0 14.0960693359375 0 14.0960693359375 L 0 -9.5367431640625e-07 Z" stroke="none" fill="#000"/>
      </g>
      <g id="Path_24" data-name="Path 24" transform="translate(242.718 150)" fill="none">
        <path d="M0,0H53.282V13.478S39.757,0,26.437,0,8.7,4.923,0,12.405Z" stroke="none"/>
        <path d="M 0.9999961853027344 1.000001907348633 L 0.9999961853027344 10.21603298187256 C 1.160411834716797 10.07637691497803 1.319553375244141 9.937725067138672 1.4774169921875 9.800191879272461 C 5.899574279785156 5.947388648986816 9.432441711425781 2.869259834289551 14.18980026245117 1.000001907348633 L 0.9999961853027344 1.000001907348633 M 36.20077514648438 1.000001907348633 C 39.15567016601562 2.147050857543945 42.23119354248047 3.784992218017578 45.40988540649414 5.907472133636475 C 48.39384460449219 7.899925708770752 50.78842926025391 9.875923156738281 52.2822265625 11.19303226470947 L 52.2822265625 1.000001907348633 L 36.20077514648438 1.000001907348633 M -3.814697265625e-06 1.9073486328125e-06 L 26.43652534484863 1.9073486328125e-06 C 13.115966796875 1.9073486328125e-06 8.703125 4.922732353210449 -3.814697265625e-06 12.40517234802246 L -3.814697265625e-06 1.9073486328125e-06 Z M 26.43652534484863 1.9073486328125e-06 L 53.2822265625 1.9073486328125e-06 L 53.2822265625 13.47824192047119 C 53.2822265625 13.47824192047119 39.75707626342773 1.9073486328125e-06 26.43652534484863 1.9073486328125e-06 Z" stroke="none" fill="#777"/>
      </g>
    </g>
    <g id="Circles">
      <g id="Ellipse_1" data-name="Ellipse 1" transform="translate(213 103)" fill="none" stroke="#f5e1bf" stroke-width="4">
        <circle cx="56" cy="56" r="56" stroke="none"/>
        <circle cx="56" cy="56" r="54" fill="none"/>
      </g>
      <g id="Ellipse_2" data-name="Ellipse 2" transform="translate(193 83)" fill="none" stroke="#f5e1bf" stroke-width="4">
        <circle cx="76" cy="76" r="76" stroke="none"/>
        <circle cx="76" cy="76" r="74" fill="none"/>
      </g>
    </g>
    <g id="Text">
      <text id="S" transform="translate(181 181)" font-size="65" font-family="TimesNewRomanPS-BoldMT, Times New Roman" font-weight="700"><tspan x="0" y="0">S</tspan></text>
      <text id="D" transform="translate(400 182)" font-size="69" font-family="TimesNewRomanPS-BoldMT, Times New Roman" font-weight="700"><tspan x="0" y="0">D</tspan></text>
      <text id="N" transform="translate(313 182)" font-size="69" font-family="TimesNewRomanPS-BoldMT, Times New Roman" font-weight="700"><tspan x="0" y="0">N</tspan></text>
      <text id="I" transform="translate(487 182)" font-size="69" font-family="TimesNewRomanPS-BoldMT, Times New Roman" font-weight="700"><tspan x="0" y="0">I</tspan></text>
    </g>
    <text id="de_properties" data-name="de properties" transform="translate(368 210)" font-size="18" font-family="Arial-BoldMT, Arial" font-weight="700"><tspan x="0" y="0">DE PROPERTIES</tspan></text>
  </g>
</svg>
