<svg xmlns="http://www.w3.org/2000/svg" width="80.788" height="80.788" viewBox="0 0 80.788 80.788">
  <path id="mail" d="M67.376,20.129V0H13.412V20.129L0,30.132V71.32a9.478,9.478,0,0,0,9.467,9.467H71.32a9.478,9.478,0,0,0,9.467-9.467V30.132Zm4.7,11.382-4.7,3.5V28ZM61.064,6.312V39.705L40.394,55.08,19.724,39.705V6.312ZM13.412,35.01l-4.7-3.5L13.412,28ZM71.32,74.476H9.467A3.159,3.159,0,0,1,6.312,71.32V37.6L40.394,62.946,74.476,37.6V71.32A3.159,3.159,0,0,1,71.32,74.476ZM36.291,22.564H29.98a10.2,10.2,0,0,1,3.4-7.585A10.585,10.585,0,0,1,41.6,12.373a10.379,10.379,0,0,1,9.153,9.076c.48,4.327-2.047,7.4-3.99,9.337-.487.486-.935.91-1.33,1.284-1.819,1.721-1.88,1.882-1.88,2.823v.136H37.239v-.136c0-3.761,1.872-5.532,3.853-7.407.385-.365.784-.742,1.213-1.169,1.663-1.657,2.312-2.905,2.172-4.172a4.025,4.025,0,0,0-3.571-3.5,4.21,4.21,0,0,0-3.318,1.034A3.828,3.828,0,0,0,36.291,22.564Zm.947,17.357H43.55v6.312H37.238Z"/>
</svg>
